<mxfile host="Electron" modified="2023-08-03T09:37:43.354Z" agent="Mozilla/5.0 (Windows NT 10.0; Win64; x64) AppleWebKit/537.36 (KHTML, like Gecko) draw.io/21.5.0 Chrome/112.0.5615.204 Electron/24.5.1 Safari/537.36" etag="ULQ1HHHREQoLlaDMeOe_" version="21.5.0" type="device">
  <diagram name="第 1 页" id="SJUFtMd86H46gVQ6PEXm">
    <mxGraphModel dx="830" dy="1309" grid="1" gridSize="10" guides="1" tooltips="1" connect="1" arrows="1" fold="1" page="1" pageScale="1" pageWidth="1169" pageHeight="827" math="0" shadow="0">
      <root>
        <mxCell id="0" />
        <mxCell id="1" parent="0" />
        <mxCell id="hU8EZ5hpHEtVpor8oMlj-2" value="&lt;font style=&quot;font-weight: normal; font-size: 12px;&quot;&gt;Uncache&lt;/font&gt;" style="rounded=1;whiteSpace=wrap;html=1;fontStyle=1;fontSize=25;strokeWidth=1;" parent="1" vertex="1">
          <mxGeometry x="430.5" y="-420" width="60" height="219.76" as="geometry" />
        </mxCell>
        <mxCell id="hU8EZ5hpHEtVpor8oMlj-3" value="&lt;font style=&quot;font-size: 12px; font-weight: normal;&quot;&gt;Pmem &lt;br&gt;Mux&lt;/font&gt;" style="rounded=1;whiteSpace=wrap;html=1;fontStyle=1;fontSize=25;strokeWidth=1;" parent="1" vertex="1">
          <mxGeometry x="670" y="-679.9" width="60" height="480" as="geometry" />
        </mxCell>
        <mxCell id="hU8EZ5hpHEtVpor8oMlj-4" value="&lt;font style=&quot;font-weight: normal; font-size: 12px;&quot;&gt;Axi&lt;/font&gt;" style="rounded=1;whiteSpace=wrap;html=1;fontStyle=1;fontSize=25;strokeWidth=1;" parent="1" vertex="1">
          <mxGeometry x="891" y="-680.24" width="80" height="480" as="geometry" />
        </mxCell>
        <mxCell id="hU8EZ5hpHEtVpor8oMlj-15" value="" style="curved=1;endArrow=classic;html=1;rounded=0;fontStyle=1;strokeWidth=1;entryX=-0.001;entryY=0.417;entryDx=0;entryDy=0;entryPerimeter=0;" parent="1" edge="1">
          <mxGeometry width="50" height="50" relative="1" as="geometry">
            <mxPoint x="80.08" y="-440.83" as="sourcePoint" />
            <mxPoint x="199.99999999999986" y="-440.9099999999999" as="targetPoint" />
            <Array as="points" />
          </mxGeometry>
        </mxCell>
        <mxCell id="hU8EZ5hpHEtVpor8oMlj-16" value="&lt;font style=&quot;font-size: 10px;&quot;&gt;mem_addr_i[31:0]&lt;/font&gt;" style="text;whiteSpace=wrap;html=1;fontSize=13;fontStyle=0;strokeWidth=1;" parent="1" vertex="1">
          <mxGeometry x="93.08" y="-305" width="96" height="21" as="geometry" />
        </mxCell>
        <mxCell id="hU8EZ5hpHEtVpor8oMlj-17" value="&lt;font style=&quot;font-size: 10px; font-weight: normal;&quot;&gt;mem_data_wr_i[31:0]&lt;/font&gt;" style="text;whiteSpace=wrap;html=1;fontStyle=1;fontSize=13;strokeWidth=1;" parent="1" vertex="1">
          <mxGeometry x="77.08" y="-465.38" width="99" height="22.77" as="geometry" />
        </mxCell>
        <mxCell id="hU8EZ5hpHEtVpor8oMlj-18" value="" style="curved=1;endArrow=classic;html=1;rounded=0;fontStyle=1;strokeWidth=1;" parent="1" edge="1">
          <mxGeometry width="50" height="50" relative="1" as="geometry">
            <mxPoint x="80.08" y="-281" as="sourcePoint" />
            <mxPoint x="199.08" y="-281" as="targetPoint" />
            <Array as="points" />
          </mxGeometry>
        </mxCell>
        <mxCell id="hU8EZ5hpHEtVpor8oMlj-19" value="" style="curved=1;endArrow=classic;html=1;rounded=0;fontStyle=1;strokeWidth=1;entryX=-0.003;entryY=0.543;entryDx=0;entryDy=0;entryPerimeter=0;" parent="1" target="hU8EZ5hpHEtVpor8oMlj-81" edge="1">
          <mxGeometry width="50" height="50" relative="1" as="geometry">
            <mxPoint x="260" y="-560" as="sourcePoint" />
            <mxPoint x="400" y="-559.6489599999999" as="targetPoint" />
            <Array as="points" />
          </mxGeometry>
        </mxCell>
        <mxCell id="hU8EZ5hpHEtVpor8oMlj-20" value="" style="curved=1;endArrow=classic;html=1;rounded=0;fontStyle=1;strokeWidth=1;entryX=-0.006;entryY=0.362;entryDx=0;entryDy=0;entryPerimeter=0;" parent="1" target="hU8EZ5hpHEtVpor8oMlj-81" edge="1">
          <mxGeometry width="50" height="50" relative="1" as="geometry">
            <mxPoint x="260" y="-600" as="sourcePoint" />
            <mxPoint x="399.68000000000006" y="-599.9528799999999" as="targetPoint" />
            <Array as="points" />
          </mxGeometry>
        </mxCell>
        <mxCell id="hU8EZ5hpHEtVpor8oMlj-21" value="" style="curved=1;endArrow=classic;html=1;rounded=0;fontStyle=1;strokeWidth=1;" parent="1" edge="1">
          <mxGeometry width="50" height="50" relative="1" as="geometry">
            <mxPoint x="260" y="-280" as="sourcePoint" />
            <mxPoint x="430" y="-280" as="targetPoint" />
            <Array as="points" />
          </mxGeometry>
        </mxCell>
        <mxCell id="hU8EZ5hpHEtVpor8oMlj-22" value="" style="curved=1;endArrow=classic;html=1;rounded=0;fontStyle=1;strokeWidth=1;" parent="1" edge="1">
          <mxGeometry width="50" height="50" relative="1" as="geometry">
            <mxPoint x="260" y="-320" as="sourcePoint" />
            <mxPoint x="430" y="-320" as="targetPoint" />
            <Array as="points" />
          </mxGeometry>
        </mxCell>
        <mxCell id="hU8EZ5hpHEtVpor8oMlj-23" value="&lt;font style=&quot;font-size: 10px;&quot;&gt;mem_cached_data_wr_w[31:0]&lt;/font&gt;" style="text;whiteSpace=wrap;html=1;fontStyle=0;fontSize=13;align=right;strokeWidth=1;" parent="1" vertex="1">
          <mxGeometry x="282" y="-583.5999999999999" width="140" height="27.63" as="geometry" />
        </mxCell>
        <mxCell id="hU8EZ5hpHEtVpor8oMlj-24" value="&lt;font size=&quot;1&quot; style=&quot;&quot;&gt;mem_cached_addr_w[31:0]&lt;/font&gt;" style="text;whiteSpace=wrap;html=1;fontSize=13;align=right;fontStyle=0;strokeWidth=1;" parent="1" vertex="1">
          <mxGeometry x="291" y="-624" width="131" height="27.34" as="geometry" />
        </mxCell>
        <mxCell id="hU8EZ5hpHEtVpor8oMlj-25" value="&lt;font size=&quot;1&quot; style=&quot;&quot;&gt;mem_uncached_data_wr_w[31:0]&lt;/font&gt;" style="text;whiteSpace=wrap;html=1;fontSize=13;align=right;fontStyle=0;strokeWidth=1;" parent="1" vertex="1">
          <mxGeometry x="249" y="-304" width="174" height="24" as="geometry" />
        </mxCell>
        <mxCell id="hU8EZ5hpHEtVpor8oMlj-26" value="&lt;font size=&quot;1&quot; style=&quot;&quot;&gt;mem_uncached_addr_w[31:0]&lt;/font&gt;" style="text;whiteSpace=wrap;html=1;fontStyle=0;fontSize=13;align=right;strokeWidth=1;" parent="1" vertex="1">
          <mxGeometry x="270" y="-343.69" width="153" height="23.57" as="geometry" />
        </mxCell>
        <mxCell id="hU8EZ5hpHEtVpor8oMlj-27" value="" style="curved=1;endArrow=classic;html=1;rounded=0;fontStyle=1;strokeWidth=1;exitX=0.002;exitY=0.179;exitDx=0;exitDy=0;exitPerimeter=0;" parent="1" source="hU8EZ5hpHEtVpor8oMlj-81" edge="1">
          <mxGeometry width="50" height="50" relative="1" as="geometry">
            <mxPoint x="400" y="-640.2568" as="sourcePoint" />
            <mxPoint x="260" y="-640" as="targetPoint" />
            <Array as="points" />
          </mxGeometry>
        </mxCell>
        <mxCell id="hU8EZ5hpHEtVpor8oMlj-28" value="" style="curved=1;endArrow=classic;html=1;rounded=0;fontStyle=1;strokeWidth=1;exitX=-0.002;exitY=0.818;exitDx=0;exitDy=0;exitPerimeter=0;" parent="1" source="hU8EZ5hpHEtVpor8oMlj-2" edge="1">
          <mxGeometry width="50" height="50" relative="1" as="geometry">
            <mxPoint x="400.0799999999999" y="-240.45607999999993" as="sourcePoint" />
            <mxPoint x="260" y="-240" as="targetPoint" />
            <Array as="points" />
          </mxGeometry>
        </mxCell>
        <mxCell id="hU8EZ5hpHEtVpor8oMlj-29" value="&lt;font style=&quot;font-size: 10px;&quot;&gt;mem_cached_data_rd_w[31:0]&lt;/font&gt;" style="text;whiteSpace=wrap;html=1;fontSize=13;fontStyle=0;strokeWidth=1;" parent="1" vertex="1">
          <mxGeometry x="267" y="-662.66" width="140" height="24.34" as="geometry" />
        </mxCell>
        <mxCell id="hU8EZ5hpHEtVpor8oMlj-30" value="&lt;font size=&quot;1&quot; style=&quot;&quot;&gt;mem_uncached_data_rd_w[31:0]&lt;/font&gt;" style="text;whiteSpace=wrap;html=1;fontSize=13;align=right;fontStyle=0;strokeWidth=1;" parent="1" vertex="1">
          <mxGeometry x="270" y="-263" width="150" height="20" as="geometry" />
        </mxCell>
        <mxCell id="hU8EZ5hpHEtVpor8oMlj-31" value="&lt;font style=&quot;font-size: 10px;&quot;&gt;pmem_cache_write_data_w[31:0]&lt;/font&gt;" style="text;whiteSpace=wrap;html=1;fontSize=13;align=right;strokeWidth=1;" parent="1" vertex="1">
          <mxGeometry x="506" y="-583.6" width="156" height="22.86" as="geometry" />
        </mxCell>
        <mxCell id="hU8EZ5hpHEtVpor8oMlj-32" value="&lt;font size=&quot;1&quot; style=&quot;&quot;&gt;pmem_uncached_write_data_w[31:0]&lt;/font&gt;" style="text;whiteSpace=wrap;html=1;strokeWidth=1;fontSize=13;align=right;" parent="1" vertex="1">
          <mxGeometry x="488.5" y="-304" width="173" height="20.69" as="geometry" />
        </mxCell>
        <mxCell id="hU8EZ5hpHEtVpor8oMlj-33" value="&lt;font style=&quot;font-size: 10px;&quot;&gt;pmem_cache_addr_w[31:0]&lt;/font&gt;" style="text;whiteSpace=wrap;html=1;fontSize=13;align=right;strokeWidth=1;" parent="1" vertex="1">
          <mxGeometry x="527" y="-624.3299999999999" width="136" height="19" as="geometry" />
        </mxCell>
        <mxCell id="hU8EZ5hpHEtVpor8oMlj-34" value="&lt;font style=&quot;&quot;&gt;&lt;font style=&quot;font-size: 10px;&quot;&gt;pmem_uncached_addr_w[31:0]&lt;/font&gt;&lt;br style=&quot;font-size: 13px;&quot;&gt;&lt;/font&gt;" style="text;whiteSpace=wrap;html=1;fontSize=13;align=right;strokeWidth=1;" parent="1" vertex="1">
          <mxGeometry x="506" y="-344" width="156" height="18.69" as="geometry" />
        </mxCell>
        <mxCell id="hU8EZ5hpHEtVpor8oMlj-35" value="&lt;font style=&quot;font-size: 10px;&quot;&gt;pmem_cache_read_data_w[31:0]&lt;/font&gt;" style="text;whiteSpace=wrap;html=1;fontSize=13;align=right;strokeWidth=1;" parent="1" vertex="1">
          <mxGeometry x="503" y="-663.66" width="150" height="30" as="geometry" />
        </mxCell>
        <mxCell id="hU8EZ5hpHEtVpor8oMlj-36" value="&lt;font size=&quot;1&quot; style=&quot;&quot;&gt;pmem_uncached_read_data_w[31:0]&lt;/font&gt;" style="text;whiteSpace=wrap;html=1;fontSize=13;align=right;strokeWidth=1;" parent="1" vertex="1">
          <mxGeometry x="514" y="-263.9" width="154" height="22.9" as="geometry" />
        </mxCell>
        <mxCell id="hU8EZ5hpHEtVpor8oMlj-37" value="" style="curved=1;endArrow=classic;html=1;rounded=0;fontStyle=1;strokeWidth=1;entryX=0;entryY=0.666;entryDx=0;entryDy=0;entryPerimeter=0;" parent="1" edge="1">
          <mxGeometry width="50" height="50" relative="1" as="geometry">
            <mxPoint x="731" y="-280.99999999999994" as="sourcePoint" />
            <mxPoint x="891" y="-280.5600000000002" as="targetPoint" />
            <Array as="points" />
          </mxGeometry>
        </mxCell>
        <mxCell id="hU8EZ5hpHEtVpor8oMlj-38" value="" style="curved=1;endArrow=classic;html=1;rounded=0;fontStyle=1;strokeWidth=1;entryX=-0.003;entryY=0.417;entryDx=0;entryDy=0;entryPerimeter=0;" parent="1" edge="1">
          <mxGeometry width="50" height="50" relative="1" as="geometry">
            <mxPoint x="730.24" y="-440.6099999999999" as="sourcePoint" />
            <mxPoint x="890" y="-440.9899999999999" as="targetPoint" />
            <Array as="points" />
          </mxGeometry>
        </mxCell>
        <mxCell id="hU8EZ5hpHEtVpor8oMlj-39" value="" style="curved=1;endArrow=classic;html=1;rounded=0;fontStyle=1;strokeWidth=1;entryX=1.008;entryY=0.166;entryDx=0;entryDy=0;entryPerimeter=0;exitX=-0.002;exitY=0.167;exitDx=0;exitDy=0;exitPerimeter=0;" parent="1" target="hU8EZ5hpHEtVpor8oMlj-3" edge="1" source="hU8EZ5hpHEtVpor8oMlj-4">
          <mxGeometry width="50" height="50" relative="1" as="geometry">
            <mxPoint x="890" y="-601" as="sourcePoint" />
            <mxPoint x="799.38" y="-600.9999999999999" as="targetPoint" />
            <Array as="points" />
          </mxGeometry>
        </mxCell>
        <mxCell id="hU8EZ5hpHEtVpor8oMlj-40" value="&lt;font size=&quot;1&quot; style=&quot;&quot;&gt;pmem_read_data_w[31:0]&lt;/font&gt;" style="text;whiteSpace=wrap;html=1;fontSize=13;align=right;strokeWidth=1;" parent="1" vertex="1">
          <mxGeometry x="747" y="-304.99999999999994" width="136" height="29.67" as="geometry" />
        </mxCell>
        <mxCell id="hU8EZ5hpHEtVpor8oMlj-41" value="&lt;font style=&quot;font-size: 11px;&quot;&gt;pmem_addr_w[31:0]&lt;/font&gt;" style="text;whiteSpace=wrap;html=1;fontSize=13;align=right;strokeWidth=1;" parent="1" vertex="1">
          <mxGeometry x="741.62" y="-623.6700000000001" width="103.38" height="20.67" as="geometry" />
        </mxCell>
        <mxCell id="hU8EZ5hpHEtVpor8oMlj-42" value="&lt;font size=&quot;1&quot; style=&quot;&quot;&gt;pmem_write_data_w[31:0]&lt;/font&gt;" style="text;whiteSpace=wrap;html=1;strokeWidth=1;fontSize=13;align=right;" parent="1" vertex="1">
          <mxGeometry x="745.24" y="-464.90999999999997" width="138" height="22.67" as="geometry" />
        </mxCell>
        <mxCell id="hU8EZ5hpHEtVpor8oMlj-43" value="" style="curved=1;endArrow=classic;html=1;rounded=0;fontStyle=1;strokeWidth=1;" parent="1" edge="1">
          <mxGeometry width="50" height="50" relative="1" as="geometry">
            <mxPoint x="1091" y="-600" as="sourcePoint" />
            <mxPoint x="971" y="-600" as="targetPoint" />
            <Array as="points" />
          </mxGeometry>
        </mxCell>
        <mxCell id="hU8EZ5hpHEtVpor8oMlj-44" value="" style="curved=1;endArrow=classic;html=1;rounded=0;fontStyle=1;strokeWidth=1;exitX=0.001;exitY=0.167;exitDx=0;exitDy=0;exitPerimeter=0;" parent="1" edge="1">
          <mxGeometry width="50" height="50" relative="1" as="geometry">
            <mxPoint x="200.07999999999993" y="-600.0799999999999" as="sourcePoint" />
            <mxPoint x="80" y="-600" as="targetPoint" />
            <Array as="points" />
          </mxGeometry>
        </mxCell>
        <mxCell id="hU8EZ5hpHEtVpor8oMlj-45" value="&lt;font style=&quot;font-size: 10px;&quot;&gt;mem_data_rd_o[31:0]&lt;/font&gt;" style="text;whiteSpace=wrap;html=1;fontSize=13;fontStyle=0;strokeWidth=1;" parent="1" vertex="1">
          <mxGeometry x="90" y="-624" width="100" height="20" as="geometry" />
        </mxCell>
        <mxCell id="hU8EZ5hpHEtVpor8oMlj-46" value="" style="curved=1;endArrow=classic;html=1;rounded=0;fontStyle=1;strokeWidth=1;" parent="1" edge="1">
          <mxGeometry width="50" height="50" relative="1" as="geometry">
            <mxPoint x="971" y="-480" as="sourcePoint" />
            <mxPoint x="1091" y="-480" as="targetPoint" />
            <Array as="points" />
          </mxGeometry>
        </mxCell>
        <mxCell id="hU8EZ5hpHEtVpor8oMlj-47" value="" style="curved=1;endArrow=classic;html=1;rounded=0;fontStyle=1;strokeWidth=1;" parent="1" edge="1">
          <mxGeometry width="50" height="50" relative="1" as="geometry">
            <mxPoint x="971" y="-360" as="sourcePoint" />
            <mxPoint x="1091" y="-360" as="targetPoint" />
            <Array as="points" />
          </mxGeometry>
        </mxCell>
        <mxCell id="hU8EZ5hpHEtVpor8oMlj-48" value="" style="curved=1;endArrow=classic;html=1;rounded=0;fontStyle=1;strokeWidth=1;" parent="1" edge="1">
          <mxGeometry width="50" height="50" relative="1" as="geometry">
            <mxPoint x="970" y="-241" as="sourcePoint" />
            <mxPoint x="1090" y="-241" as="targetPoint" />
            <Array as="points" />
          </mxGeometry>
        </mxCell>
        <mxCell id="hU8EZ5hpHEtVpor8oMlj-49" value="&lt;font style=&quot;font-size: 10px; font-weight: normal;&quot;&gt;axi_wdata_o [31:0]&lt;/font&gt;" style="text;whiteSpace=wrap;html=1;fontSize=13;fontStyle=1;align=left;strokeWidth=1;" parent="1" vertex="1">
          <mxGeometry x="995" y="-384" width="93" height="20" as="geometry" />
        </mxCell>
        <mxCell id="hU8EZ5hpHEtVpor8oMlj-50" value="&lt;font style=&quot;font-size: 10px; font-weight: normal;&quot;&gt;axi_awaddr_o [31:0]&lt;/font&gt;" style="text;whiteSpace=wrap;html=1;fontSize=13;fontStyle=1;align=left;strokeWidth=1;" parent="1" vertex="1">
          <mxGeometry x="989" y="-265.04" width="103" height="25.04" as="geometry" />
        </mxCell>
        <mxCell id="hU8EZ5hpHEtVpor8oMlj-51" value="&lt;font style=&quot;font-size: 10px; font-weight: normal;&quot;&gt;axi_araddr_o [31:0]&lt;/font&gt;" style="text;whiteSpace=wrap;html=1;fontSize=13;fontStyle=1;align=left;strokeWidth=1;" parent="1" vertex="1">
          <mxGeometry x="992" y="-504" width="103" height="26.3" as="geometry" />
        </mxCell>
        <mxCell id="hU8EZ5hpHEtVpor8oMlj-72" value="" style="group;strokeWidth=1;" parent="1" vertex="1" connectable="0">
          <mxGeometry x="430" y="-679.9" width="61" height="220.24" as="geometry" />
        </mxCell>
        <mxCell id="hU8EZ5hpHEtVpor8oMlj-73" value="TAG RAM" style="rounded=1;whiteSpace=wrap;html=1;strokeWidth=1;" parent="hU8EZ5hpHEtVpor8oMlj-72" vertex="1">
          <mxGeometry x="12.647924796026958" y="16.627115445108522" width="35.704150407946074" height="49.88134633532557" as="geometry" />
        </mxCell>
        <mxCell id="hU8EZ5hpHEtVpor8oMlj-74" value="DATA RAM" style="rounded=1;whiteSpace=wrap;html=1;strokeWidth=1;" parent="hU8EZ5hpHEtVpor8oMlj-72" vertex="1">
          <mxGeometry x="12.647924796026958" y="149.64403900597674" width="35.704150407946074" height="49.88134633532557" as="geometry" />
        </mxCell>
        <mxCell id="hU8EZ5hpHEtVpor8oMlj-81" value="&lt;font style=&quot;font-weight: normal; font-size: 12px;&quot;&gt;Core&lt;/font&gt;" style="rounded=1;whiteSpace=wrap;html=1;fontStyle=1;fontSize=25;strokeWidth=1;" parent="hU8EZ5hpHEtVpor8oMlj-72" vertex="1">
          <mxGeometry width="61" height="220.24" as="geometry" />
        </mxCell>
        <mxCell id="hU8EZ5hpHEtVpor8oMlj-77" value="" style="curved=1;endArrow=classic;html=1;rounded=0;fontStyle=1;strokeWidth=1;exitX=1.002;exitY=0.636;exitDx=0;exitDy=0;exitPerimeter=0;" parent="1" source="hU8EZ5hpHEtVpor8oMlj-2" edge="1">
          <mxGeometry width="50" height="50" relative="1" as="geometry">
            <mxPoint x="500" y="-280.00000000000006" as="sourcePoint" />
            <mxPoint x="670" y="-280" as="targetPoint" />
            <Array as="points" />
          </mxGeometry>
        </mxCell>
        <mxCell id="hU8EZ5hpHEtVpor8oMlj-78" value="" style="curved=1;endArrow=classic;html=1;rounded=0;fontStyle=1;strokeWidth=1;exitX=1.005;exitY=0.455;exitDx=0;exitDy=0;exitPerimeter=0;" parent="1" source="hU8EZ5hpHEtVpor8oMlj-2" edge="1">
          <mxGeometry width="50" height="50" relative="1" as="geometry">
            <mxPoint x="500" y="-320.12000000000006" as="sourcePoint" />
            <mxPoint x="670" y="-320" as="targetPoint" />
            <Array as="points" />
          </mxGeometry>
        </mxCell>
        <mxCell id="hU8EZ5hpHEtVpor8oMlj-80" value="" style="curved=1;endArrow=classic;html=1;rounded=0;fontStyle=1;strokeWidth=1;entryX=1.005;entryY=0.817;entryDx=0;entryDy=0;entryPerimeter=0;" parent="1" target="hU8EZ5hpHEtVpor8oMlj-2" edge="1">
          <mxGeometry width="50" height="50" relative="1" as="geometry">
            <mxPoint x="670" y="-240" as="sourcePoint" />
            <mxPoint x="499.99845145089284" y="-240.00000000000006" as="targetPoint" />
            <Array as="points" />
          </mxGeometry>
        </mxCell>
        <mxCell id="hU8EZ5hpHEtVpor8oMlj-83" value="&lt;span style=&quot;&quot;&gt;&lt;font style=&quot;font-size: 10px;&quot;&gt;axi_raddr_i[31:0]&lt;/font&gt;&lt;/span&gt;" style="text;whiteSpace=wrap;html=1;fontSize=13;fontStyle=0;align=left;strokeWidth=1;" parent="1" vertex="1">
          <mxGeometry x="982" y="-623" width="86" height="20" as="geometry" />
        </mxCell>
        <mxCell id="hU8EZ5hpHEtVpor8oMlj-79" value="" style="curved=1;endArrow=classic;html=1;rounded=0;fontStyle=1;strokeWidth=1;entryX=1.007;entryY=0.179;entryDx=0;entryDy=0;entryPerimeter=0;" parent="1" edge="1">
          <mxGeometry width="50" height="50" relative="1" as="geometry">
            <mxPoint x="670" y="-640" as="sourcePoint" />
            <mxPoint x="492.42700000000013" y="-640.47704" as="targetPoint" />
            <Array as="points" />
          </mxGeometry>
        </mxCell>
        <mxCell id="hU8EZ5hpHEtVpor8oMlj-76" value="" style="curved=1;endArrow=classic;html=1;rounded=0;fontStyle=1;strokeWidth=1;exitX=1.001;exitY=0.361;exitDx=0;exitDy=0;exitPerimeter=0;" parent="1" source="hU8EZ5hpHEtVpor8oMlj-81" edge="1">
          <mxGeometry width="50" height="50" relative="1" as="geometry">
            <mxPoint x="500.99999999999994" y="-600.3247999999999" as="sourcePoint" />
            <mxPoint x="670" y="-600" as="targetPoint" />
            <Array as="points" />
          </mxGeometry>
        </mxCell>
        <mxCell id="hU8EZ5hpHEtVpor8oMlj-75" value="" style="curved=1;endArrow=classic;html=1;rounded=0;fontStyle=1;strokeWidth=1;exitX=0.992;exitY=0.542;exitDx=0;exitDy=0;exitPerimeter=0;" parent="1" source="hU8EZ5hpHEtVpor8oMlj-81" edge="1">
          <mxGeometry width="50" height="50" relative="1" as="geometry">
            <mxPoint x="500" y="-559.9977777777779" as="sourcePoint" />
            <mxPoint x="670" y="-560" as="targetPoint" />
            <Array as="points" />
          </mxGeometry>
        </mxCell>
        <mxCell id="hU8EZ5hpHEtVpor8oMlj-86" value="&lt;font style=&quot;font-weight: normal; font-size: 12px;&quot;&gt;Mux&lt;/font&gt;" style="rounded=1;whiteSpace=wrap;html=1;fontStyle=1;strokeWidth=1;" parent="1" vertex="1">
          <mxGeometry x="200" y="-680.24" width="60" height="480" as="geometry" />
        </mxCell>
      </root>
    </mxGraphModel>
  </diagram>
</mxfile>
